<?xml version="1.0" standalone="no"?>
<!DOCTYPE svg PUBLIC "-//W3C//DTD SVG 20010904//EN"
 "http://www.w3.org/TR/2001/REC-SVG-20010904/DTD/svg10.dtd">
<svg version="1.0" xmlns="http://www.w3.org/2000/svg"
 width="720.000000pt" height="720.000000pt" viewBox="0 0 720.000000 720.000000"
 preserveAspectRatio="xMidYMid meet">
<metadata>
Created by potrace 1.14, written by Peter Selinger 2001-2017
</metadata>
<g transform="translate(0.000000,720.000000) scale(0.100000,-0.100000)"
fill="#000000" stroke="none">
<path d="M3645 6965 c-313 -54 -555 -282 -634 -600 l-10 -40 -84 2 c-291 5
-565 -164 -697 -432 -49 -98 -80 -199 -80 -262 0 -24 -8 -37 -32 -54 -139 -97
-262 -275 -302 -435 -24 -93 -26 -114 -26 -204 0 -191 64 -367 185 -508 42
-50 120 -120 157 -143 6 -4 12 -45 14 -93 14 -373 300 -694 666 -745 65 -9
211 -7 261 4 47 10 181 55 207 69 23 13 28 12 65 -18 150 -123 353 -213 562
-249 74 -13 84 -18 115 -52 90 -102 110 -157 125 -340 14 -157 8 -464 -9 -512
l-16 -43 27 -1 c32 0 310 0 330 1 10 0 12 11 7 42 -3 24 -8 75 -11 113 -4 39
-8 80 -10 91 -2 12 -6 61 -10 110 -4 49 -9 100 -11 114 -2 14 -6 124 -10 246
l-7 220 94 23 c52 13 133 38 180 56 l87 33 83 -41 c125 -63 210 -82 354 -81
179 0 316 43 452 140 187 133 294 319 328 569 4 29 14 47 37 65 160 127 261
294 298 494 27 145 -5 354 -74 485 l-23 45 32 50 c40 63 83 170 100 250 20 90
12 282 -14 374 -76 264 -284 467 -552 542 -41 11 -75 20 -76 20 -48 -1 -51 2
-97 80 -79 136 -223 265 -362 323 -112 48 -181 61 -314 61 -176 0 -306 -39
-447 -135 l-41 -29 -26 45 c-35 58 -128 158 -193 206 -89 66 -222 125 -325
144 -64 12 -204 12 -273 0z"/>
<path d="M4854 3263 c-3 -10 -14 -40 -25 -67 -20 -51 -23 -97 -10 -131 5 -11
4 -25 0 -31 -5 -7 -13 -41 -17 -78 -6 -50 -15 -73 -34 -94 -13 -15 -37 -52
-51 -82 -15 -30 -51 -86 -82 -125 -30 -38 -60 -81 -66 -95 -8 -20 -23 -110
-32 -204 -3 -25 31 -32 138 -29 44 1 110 2 147 2 36 0 69 5 73 10 9 16 25 13
25 -4 0 -15 8 -17 50 -17 40 0 48 2 53 16 4 9 -6 20 -28 30 -41 20 -50 51 -35
121 6 28 13 68 16 90 3 22 12 63 21 92 14 42 15 58 5 91 -7 22 -12 60 -12 86
0 46 6 54 42 60 35 5 68 57 49 80 -5 6 -10 36 -12 66 -3 42 2 66 19 102 25 50
23 68 -6 63 -9 -2 -20 -4 -24 -4 -4 -1 -18 -12 -30 -26 -19 -20 -29 -24 -60
-19 -32 6 -39 12 -49 43 -12 38 -36 71 -51 71 -5 0 -11 -8 -14 -17z m36 -743
c0 -5 -4 -10 -10 -10 -5 0 -10 5 -10 10 0 6 5 10 10 10 6 0 10 -4 10 -10z m9
-149 c1 -11 -4 -10 -18 3 -17 15 -18 21 -8 37 12 19 12 19 19 -3 3 -13 6 -29
7 -37z"/>
<path d="M2329 2576 c-2 -2 -29 -7 -59 -10 -168 -18 -424 -87 -575 -154 -174
-77 -394 -138 -525 -143 -30 -2 -58 -4 -61 -6 -4 -1 -2 -24 3 -50 5 -27 13
-75 17 -108 5 -33 21 -132 35 -220 13 -88 27 -173 29 -190 3 -16 12 -70 20
-120 9 -49 18 -107 21 -127 3 -21 9 -55 12 -75 3 -21 14 -92 25 -158 11 -66
22 -136 25 -155 26 -161 33 -203 37 -206 2 -2 48 8 102 21 55 14 122 28 150
31 27 3 65 9 83 14 18 5 133 7 255 6 l222 -3 125 -37 c224 -67 516 -173 815
-296 630 -259 593 -245 675 -244 140 3 219 42 445 218 224 174 217 170 719
422 529 266 623 316 766 411 74 49 207 134 295 188 88 54 176 108 195 120 19
13 112 69 205 126 94 56 186 117 205 133 19 17 91 69 160 115 176 118 259 180
271 202 5 10 13 39 18 64 7 39 5 50 -13 77 -54 80 -173 128 -306 123 -172 -6
-289 -35 -535 -130 -112 -43 -406 -167 -505 -212 -30 -14 -73 -33 -95 -43
-202 -88 -406 -190 -401 -199 4 -5 8 -38 11 -74 15 -197 -132 -355 -420 -451
-95 -32 -294 -73 -385 -79 -73 -5 -119 -16 -235 -56 -44 -15 -91 -26 -105 -25
-14 1 -126 5 -250 9 -124 3 -259 8 -300 10 -90 5 -369 14 -575 20 -187 5 -200
7 -365 57 -189 56 -400 142 -400 163 0 2 23 -6 52 -17 52 -20 252 -73 311 -83
18 -3 39 -8 47 -10 8 -2 31 -7 50 -10 19 -3 42 -8 50 -10 17 -5 135 -12 380
-20 96 -4 225 -8 285 -10 61 -3 265 -7 455 -9 321 -5 350 -4 408 14 67 21 340
78 412 86 207 23 395 117 471 235 30 47 32 56 33 147 0 53 -3 113 -7 133 -17
85 -104 158 -237 200 -58 18 -91 20 -295 21 -126 0 -306 -4 -400 -8 -335 -17
-582 -11 -730 17 -69 13 -271 72 -330 97 -71 30 -163 80 -207 114 -62 48 -153
85 -286 120 -102 26 -280 47 -293 34z"/>
<path d="M840 2503 c-80 -13 -148 -27 -152 -31 -4 -4 -3 -27 2 -52 4 -25 10
-63 13 -85 3 -22 10 -69 16 -105 6 -36 13 -81 16 -100 2 -19 14 -96 25 -170
12 -74 23 -150 26 -169 2 -19 6 -46 9 -60 7 -41 40 -253 50 -326 3 -16 16
-104 30 -195 14 -91 28 -181 31 -200 2 -19 9 -62 14 -95 5 -33 14 -91 20 -130
6 -38 13 -81 15 -95 2 -14 13 -88 25 -165 26 -180 25 -177 58 -171 15 3 50 8
77 12 28 3 59 7 71 9 11 2 51 6 88 10 l67 7 -6 39 c-4 22 -8 49 -10 62 -1 12
-13 85 -25 162 -12 77 -30 194 -40 260 -39 258 -99 641 -104 670 -3 17 -12 75
-21 130 -8 55 -22 145 -30 200 -9 55 -18 111 -20 125 -2 14 -16 102 -30 195
-39 262 -46 295 -59 294 -6 -1 -76 -12 -156 -26z"/>
<path d="M470 2494 c-74 -13 -160 -26 -190 -29 -30 -4 -59 -10 -63 -15 -9 -8
-12 -2323 -4 -2338 5 -7 205 23 626 94 l103 17 -6 58 c-4 31 -8 65 -10 76 -2
10 -7 41 -10 68 -4 28 -11 79 -17 115 -6 36 -12 81 -14 100 -2 19 -18 127 -35
240 -17 113 -35 239 -40 280 -5 41 -12 86 -14 100 -4 20 -137 939 -152 1045
-2 17 -6 46 -9 65 -3 19 -8 59 -12 88 -3 29 -9 54 -12 56 -3 1 -67 -7 -141
-20z"/>
</g>
</svg>
